<svg xmlns="http://www.w3.org/2000/svg" viewBox="0 0 120 120" width="120" height="120" role="img" aria-label="Specialized &amp; Personalized Medical Care">
  <defs>
    <linearGradient id="petal" x1="0" y1="1" x2="0" y2="0">
      <stop offset="0%"   stop-color="#9c7392" />
      <stop offset="100%" stop-color="#c48fab" />
    </linearGradient>
  </defs>

  <!-- Outer ring -->
  <circle cx="60" cy="60" r="52" fill="none" stroke="#c48fab" stroke-width="1.5" />
  <circle cx="60" cy="60" r="46.5" fill="none" stroke="#c48fab" stroke-width="0.7" opacity="0.55" />

  <!-- Open-bloom mark -->
  <g transform="translate(60 62) scale(1.45)"
     fill="none" stroke="url(#petal)" stroke-width="1.5"
     stroke-linecap="round" stroke-linejoin="round">
    <path d="M0 18 C -13 6, -13 -12, 0 -22 C 13 -12, 13 6, 0 18 Z" />
    <path d="M0 18 C -20 10, -24 -4, -22 -12 C -10 -10, -3 2, 0 18 Z" />
    <path d="M0 18 C 20 10, 24 -4, 22 -12 C 10 -10, 3 2, 0 18 Z" />
  </g>
  <circle cx="60" cy="53" r="3" fill="#7e5578" />
</svg>
